<svg width="16" height="16" viewBox="0 0 16 16" fill="none" xmlns="http://www.w3.org/2000/svg">
<mask id="mask0_135_5184" style="mask-type:alpha" maskUnits="userSpaceOnUse" x="0" y="0" width="16" height="16">
<rect width="16" height="16" fill="#D9D9D9"/>
</mask>
<g mask="url(#mask0_135_5184)">
<path d="M11.0847 8.49927H3.5C3.35811 8.49927 3.23933 8.45138 3.14367 8.35561C3.04789 8.25994 3 8.14116 3 7.99927C3 7.85738 3.04789 7.73861 3.14367 7.64294C3.23933 7.54716 3.35811 7.49927 3.5 7.49927H11.0847L7.6385 4.05311C7.53939 3.95399 7.49044 3.83799 7.49167 3.70511C7.493 3.57222 7.54533 3.45405 7.64867 3.35061C7.75211 3.25405 7.86922 3.20405 8 3.20061C8.13078 3.19716 8.24789 3.24716 8.35133 3.35061L12.5782 7.57744C12.6406 7.63988 12.6846 7.70572 12.7102 7.77494C12.7358 7.84416 12.7487 7.91894 12.7487 7.99927C12.7487 8.07961 12.7358 8.15438 12.7102 8.22361C12.6846 8.29283 12.6406 8.35866 12.5782 8.42111L8.35133 12.6479C8.259 12.7403 8.14467 12.7875 8.00833 12.7896C7.872 12.7917 7.75211 12.7445 7.64867 12.6479C7.54533 12.5445 7.49367 12.4257 7.49367 12.2916C7.49367 12.1574 7.54533 12.0386 7.64867 11.9351L11.0847 8.49927Z" fill="#0E0E0E"/>
</g>
</svg>
