<svg width="16" height="16" viewBox="0 0 16 16" fill="none" xmlns="http://www.w3.org/2000/svg">
<mask id="mask0_1385_2009" style="mask-type:alpha" maskUnits="userSpaceOnUse" x="0" y="0" width="16" height="16">
<rect width="16" height="16" fill="#D9D9D9"/>
</mask>
<g mask="url(#mask0_1385_2009)">
<path d="M11.0847 8.5H3.5C3.35811 8.5 3.23933 8.45212 3.14367 8.35634C3.04789 8.26067 3 8.14189 3 8C3 7.85812 3.04789 7.73934 3.14367 7.64367C3.23933 7.54789 3.35811 7.5 3.5 7.5H11.0847L7.6385 4.05384C7.53939 3.95473 7.49044 3.83873 7.49167 3.70584C7.493 3.57295 7.54533 3.45478 7.64867 3.35134C7.75211 3.25478 7.86922 3.20478 8 3.20134C8.13078 3.19789 8.24789 3.24789 8.35133 3.35134L12.5782 7.57817C12.6406 7.64062 12.6846 7.70645 12.7102 7.77567C12.7358 7.84489 12.7487 7.91967 12.7487 8C12.7487 8.08034 12.7358 8.15512 12.7102 8.22434C12.6846 8.29356 12.6406 8.35939 12.5782 8.42184L8.35133 12.6487C8.259 12.741 8.14467 12.7882 8.00833 12.7903C7.872 12.7924 7.75211 12.7452 7.64867 12.6487C7.54533 12.5452 7.49367 12.4264 7.49367 12.2923C7.49367 12.1581 7.54533 12.0393 7.64867 11.9358L11.0847 8.5Z" fill="white"/>
</g>
</svg>
