<svg width="1000" height="1000" viewBox="0 0 1000 1000" fill="none" xmlns="http://www.w3.org/2000/svg">
<path d="M225 875V628L4 177H171L245 339L299 476H307L361 339L435 177H596L375 628V875H225ZM910.609 177V680C910.609 711.333 904.943 740 893.609 766C882.943 791.333 867.276 813 846.609 831C826.609 849 802.276 863 773.609 873C744.943 882.333 712.943 887 677.609 887C606.276 887 550.943 869.333 511.609 834C472.943 798 448.276 751 437.609 693L579.609 664C584.943 694 594.943 718.333 609.609 737C624.943 755.667 647.609 765 677.609 765C702.943 765 722.609 757 736.609 741C751.276 724.333 758.609 699 758.609 665V300H528.609V177H910.609Z" fill="#004BF0"/>
</svg>
